<svg width="521" height="81" viewBox="0 0 521 81" fill="none" xmlns="http://www.w3.org/2000/svg">
<path d="M22.3305 19.5005L17.3533 19.5204C17.2598 18.8768 17.0719 18.3056 16.7896 17.8067C16.5073 17.3002 16.1457 16.8698 15.7049 16.5155C15.2641 16.1612 14.7555 15.8905 14.1789 15.7034C13.61 15.5163 12.9922 15.4241 12.3256 15.4267C11.121 15.4315 10.073 15.7349 9.18143 16.337C8.28985 16.9314 7.60012 17.7978 7.11222 18.9361C6.6243 20.0669 6.38355 21.4391 6.38998 23.0527C6.39659 24.7118 6.64835 26.1047 7.14527 27.2315C7.64976 28.3583 8.35012 29.2078 9.24634 29.78C10.1426 30.3522 11.1778 30.6359 12.352 30.6313C13.0111 30.6286 13.6206 30.5391 14.1805 30.3626C14.748 30.1861 15.2508 29.9303 15.6888 29.5952C16.1269 29.2526 16.4889 28.8383 16.7748 28.3523C17.0683 27.8662 17.2707 27.3124 17.3818 26.6907L22.3592 26.6936C22.2346 27.7623 21.9168 28.7939 21.4056 29.7884C20.9019 30.7752 20.2198 31.6605 19.3593 32.4443C18.5063 33.2204 17.4861 33.8381 16.2985 34.2974C15.1185 34.7491 13.7822 34.9779 12.2898 34.9838C10.2141 34.9921 8.35617 34.5298 6.71608 33.5969C5.08356 32.664 3.79027 31.3093 2.83622 29.5328C1.88974 27.7563 1.41146 25.6028 1.40138 23.0726C1.39127 20.5347 1.85994 18.3737 2.80739 16.5896C3.75483 14.8055 5.04487 13.4443 6.67751 12.506C8.31012 11.5601 10.1491 11.0831 12.1946 11.0749C13.5431 11.0696 14.7938 11.254 15.9468 11.6282C17.1074 12.0023 18.1361 12.5513 19.0329 13.275C19.9297 13.9911 20.6605 14.8708 21.2253 15.914C21.7976 16.9572 22.166 18.1527 22.3305 19.5005ZM46.3104 10.1208L49.424 10.1084C49.4328 12.3205 48.9586 14.0383 48.0013 15.2619C47.0441 16.4854 45.5238 17.1013 43.4405 17.1096L43.4305 14.6096C44.5366 14.6052 45.2926 14.2083 45.6985 13.4187C46.112 12.6292 46.316 11.5299 46.3104 10.1208ZM47.259 22.8899C47.2691 25.4277 46.7966 27.5887 45.8416 29.3729C44.8942 31.1569 43.5966 32.522 41.9488 33.4679C40.3086 34.4063 38.462 34.8796 36.409 34.8877C34.3408 34.896 32.4829 34.4337 30.8352 33.5008C29.1875 32.568 27.8829 31.2133 26.9213 29.4369C25.9596 27.6604 25.4738 25.507 25.4637 22.9767C25.4536 20.4388 25.9222 18.2779 26.8697 16.4938C27.8171 14.7097 29.111 13.3485 30.7512 12.4101C32.3914 11.4642 34.2455 10.9871 36.3137 10.9788C38.3667 10.9707 40.2171 11.433 41.8647 12.3658C43.5199 13.2911 44.8284 14.6419 45.79 16.4184C46.7592 18.1949 47.2489 20.352 47.259 22.8899ZM42.2704 22.9098C42.2638 21.2658 42.0121 19.8805 41.5152 18.7536C41.0258 17.6268 40.3368 16.7735 39.4481 16.1937C38.5595 15.6139 37.5204 15.3263 36.331 15.3311C35.1417 15.3358 34.105 15.6316 33.2209 16.2185C32.3369 16.8053 31.6509 17.6641 31.163 18.7949C30.6826 19.9256 30.4457 21.3129 30.4523 22.9568C30.4588 24.6008 30.7068 25.9861 31.1961 27.113C31.693 28.2398 32.3858 29.0931 33.2745 29.6729C34.1632 30.2527 35.2022 30.5402 36.3916 30.5355C37.581 30.5308 38.6177 30.235 39.5017 29.6481C40.3858 29.0613 41.068 28.2025 41.5483 27.0718C42.0362 25.941 42.2769 24.5537 42.2704 22.9098ZM71.9152 17.8484C71.8207 16.9321 71.4277 16.2216 70.7363 15.7168C70.0449 15.2119 69.1082 14.9619 67.9264 14.9666C67.1234 14.9698 66.4458 15.0861 65.8937 15.3156C65.3416 15.5375 64.9186 15.846 64.6247 16.2411C64.3384 16.6362 64.1962 17.0837 64.1982 17.5837C64.1847 18.0004 64.2733 18.3637 64.4639 18.6736C64.6621 18.9834 64.9321 19.2513 65.2739 19.4772C65.6157 19.6955 66.0104 19.8871 66.458 20.052C66.9056 20.2093 67.3835 20.3438 67.8915 20.4554L69.9844 20.9471C71.0004 21.1703 71.9334 21.4696 72.7834 21.845C73.6334 22.2204 74.3701 22.6834 74.9935 23.2339C75.6169 23.7845 76.1006 24.4341 76.4445 25.1827C76.7959 25.9313 76.9774 26.7905 76.9888 27.7601C76.9869 29.1844 76.6282 30.4207 75.9127 31.469C75.2047 32.5097 74.1776 33.3206 72.8315 33.9017C71.4928 34.4753 69.8765 34.7658 67.9826 34.7733C66.1038 34.7808 64.4663 34.4995 63.0701 33.9293C61.6815 33.359 60.5948 32.5111 59.81 31.3854C59.0327 30.2521 58.6218 28.8485 58.5773 27.1744L63.3386 27.1554C63.3947 27.9355 63.6208 28.5861 64.0168 29.1073C64.4204 29.6208 64.956 30.0088 65.6237 30.2713C66.299 30.5262 67.0609 30.652 67.9094 30.6486C68.7427 30.6453 69.4657 30.5212 70.0784 30.2763C70.6986 30.0314 71.1783 29.6924 71.5175 29.2592C71.8567 28.826 72.0252 28.3291 72.0229 27.7685C72.0208 27.2458 71.8638 26.8071 71.5518 26.4522C71.2473 26.0974 70.7991 25.7961 70.2072 25.5485C69.6229 25.3008 68.9061 25.0764 68.0568 24.8752L65.5202 24.249C63.5562 23.7795 62.004 23.0395 60.8636 22.0289C59.7232 21.0182 59.1534 19.6531 59.1541 17.9334C59.1409 16.5243 59.511 15.2918 60.2644 14.2357C61.0253 13.1797 62.0713 12.3535 63.4023 11.7573C64.7332 11.1611 66.2472 10.8596 67.9441 10.8528C69.6714 10.846 71.1801 11.1354 72.4704 11.7212C73.7682 12.3069 74.779 13.1249 75.5029 14.175C76.2268 15.2252 76.6028 16.4434 76.6311 17.8297L71.9152 17.8484ZM100.716 9.9041L103.83 9.8917C103.839 12.1038 103.364 13.8216 102.407 15.0451C101.45 16.2687 99.9296 16.8846 97.8463 16.8929L97.8363 14.3929C98.9424 14.3885 99.6984 13.9915 100.104 13.202C100.518 12.4125 100.722 11.3132 100.716 9.9041ZM101.665 22.6732C101.675 25.211 101.202 27.372 100.247 29.1561C99.3 30.9402 98.0024 32.3052 96.3546 33.2512C94.7144 34.1896 92.8678 34.6628 90.8148 34.671C88.7466 34.6793 86.8887 34.217 85.241 33.2841C83.5934 32.3513 82.2887 30.9966 81.3271 29.2201C80.3654 27.4436 79.8796 25.2903 79.8695 22.76C79.8594 20.2221 80.3281 18.0611 81.2755 16.2771C82.223 14.493 83.5168 13.1317 85.157 12.1934C86.7972 11.2474 88.6514 10.7704 90.7195 10.7621C92.7725 10.7539 94.6229 11.2163 96.2706 12.1491C97.9258 13.0743 99.2342 14.4252 100.196 16.2017C101.165 17.9781 101.655 20.1353 101.665 22.6732ZM96.6762 22.693C96.6696 21.0491 96.4179 19.6637 95.921 18.5369C95.4317 17.4101 94.7426 16.5567 93.854 15.9769C92.9653 15.3971 91.9263 15.1096 90.7369 15.1144C89.5475 15.1191 88.5108 15.4149 87.6267 16.0017C86.7427 16.5886 86.0567 17.4474 85.5688 18.5781C85.0885 19.7089 84.8516 21.0962 84.8581 22.7401C84.8647 24.384 85.1126 25.7694 85.6019 26.8963C86.0989 28.0231 86.7917 28.8764 87.6803 29.4562C88.569 30.036 89.608 30.3235 90.7974 30.3188C91.9868 30.314 93.0235 30.0182 93.9076 29.4314C94.7916 28.8445 95.4738 27.9857 95.9541 26.855C96.4421 25.7243 96.6827 24.337 96.6762 22.693ZM92.4949 8.5732L88.904 8.58751L88.6459 6.54307C89.4488 6.50199 90.0203 6.39365 90.3605 6.21805C90.7007 6.03488 90.8664 5.79558 90.8577 5.50016C90.8636 5.09104 90.6466 4.81539 90.2066 4.6732C89.7742 4.53098 89.2323 4.46117 88.5808 4.46376L88.697 2.2701C90.7198 2.26204 92.2587 2.52864 93.3139 3.0699C94.3767 3.61112 94.9062 4.3666 94.9025 5.33632C94.9128 6.02567 94.6649 6.54939 94.1587 6.90747C93.6601 7.25795 93.1042 7.47986 92.4909 7.57321L92.4949 8.5732ZM122.012 34.2286L113.762 34.2614L113.669 10.9889L121.988 10.9557C124.328 10.9464 126.345 11.4043 128.039 12.3294C129.732 13.2469 131.036 14.5712 131.952 16.3024C132.876 18.0336 133.342 20.1075 133.352 22.5242C133.362 24.9484 132.912 27.0336 132.002 28.7796C131.1 30.5257 129.798 31.868 128.097 32.8066C126.404 33.7451 124.376 34.2191 122.012 34.2286ZM118.666 30.0259L121.791 30.0135C123.245 30.0077 124.468 29.7452 125.458 29.2261C126.456 28.6994 127.203 27.8896 127.698 26.7968C128.202 25.6963 128.45 24.2786 128.443 22.5438C128.436 20.8241 128.177 19.4198 127.665 18.3309C127.16 17.242 126.411 16.4419 125.417 15.9308C124.422 15.4196 123.198 15.1669 121.743 15.1727L118.607 15.1851L118.666 30.0259ZM158.504 9.96935L161.629 9.95691C161.635 11.5099 161.432 12.8365 161.02 13.9366C160.615 15.0367 159.91 15.8805 158.905 16.4678C157.907 17.0475 156.518 17.341 154.738 17.3481L154.728 14.8026C155.887 14.798 156.734 14.6014 157.271 14.2129C157.807 13.8244 158.146 13.2701 158.287 12.5498C158.435 11.8295 158.508 10.9693 158.504 9.96935ZM151.325 10.8389L156.246 10.8193L156.306 25.9328C156.313 27.6297 155.913 29.1162 155.108 30.3921C154.31 31.6681 153.189 32.665 151.745 33.3828C150.301 34.0931 148.616 34.4521 146.692 34.4598C144.76 34.4675 143.07 34.1219 141.62 33.4232C140.17 32.7168 139.041 31.7289 138.233 30.4594C137.425 29.1898 137.018 27.7066 137.011 26.0096L136.951 10.8961L141.871 10.8765L141.929 25.5696C141.933 26.456 142.129 27.2431 142.518 27.9309C142.915 28.6187 143.47 29.1582 144.184 29.5493C144.898 29.9404 145.728 30.134 146.675 30.1303C147.63 30.1265 148.458 29.9262 149.161 29.5295C149.872 29.1327 150.419 28.5888 150.802 27.8979C151.194 27.2069 151.387 26.4183 151.384 25.5319L151.325 10.8389ZM143.34 8.72293L140.646 8.69957C140.641 7.25262 140.992 6.14136 141.701 5.3658C142.418 4.59021 143.291 4.19658 144.322 4.1849C144.852 4.18278 145.307 4.26809 145.686 4.44083C146.073 4.60595 146.419 4.80155 146.723 5.02761C147.034 5.25364 147.33 5.45322 147.611 5.62635C147.892 5.7919 148.196 5.87402 148.522 5.87273C148.961 5.8634 149.294 5.69919 149.52 5.38011C149.753 5.05342 149.869 4.62871 149.867 4.10599L152.515 4.17498C152.505 5.60685 152.146 6.71435 151.437 7.49749C150.728 8.27304 149.862 8.66665 148.84 8.6783C148.271 8.68056 147.794 8.59913 147.407 8.434C147.027 8.26127 146.693 8.06563 146.404 7.84708C146.116 7.62096 145.834 7.42132 145.561 7.24817C145.288 7.07501 144.98 6.98911 144.64 6.99047C144.246 6.99204 143.928 7.14861 143.687 7.46018C143.453 7.77172 143.338 8.19264 143.34 8.72293ZM172.293 34.0283L172.2 10.7557L177.121 10.7361L177.197 29.9519L187.174 29.9121L187.191 33.9689L172.293 34.0283ZM195.277 10.6638L195.369 33.9363L190.449 33.9559L190.356 10.6834L195.277 10.6638ZM199.418 33.9202L199.325 10.6477L215.007 10.5852L215.023 14.642L204.262 14.6848L204.284 20.2303L214.238 20.1906L214.254 24.2474L204.3 24.287L204.322 29.8438L215.129 29.8008L215.145 33.8575L199.418 33.9202ZM209.476 8.51629L207.181 5.75269L204.908 8.53449L200.783 8.55092L200.782 8.39183L205.364 3.37354L208.967 3.35919L213.6 8.34077L213.601 8.49986L209.476 8.51629ZM207.239 40.4232C206.519 40.4261 205.901 40.1899 205.384 39.7147C204.867 39.2394 204.607 38.6647 204.604 37.9905C204.602 37.3162 204.857 36.7395 205.37 36.2601C205.884 35.7808 206.5 35.5397 207.22 35.5369C207.939 35.534 208.554 35.7702 209.063 36.2454C209.581 36.7206 209.84 37.2954 209.843 37.9696C209.846 38.6438 209.59 39.2206 209.077 39.6999C208.572 40.1792 207.959 40.4203 207.239 40.4232ZM233.294 10.5123L238.214 10.4927L238.274 25.6063C238.281 27.3032 237.882 28.7897 237.076 30.0656C236.278 31.3415 235.157 32.3384 233.713 33.0563C232.269 33.7666 230.585 34.1256 228.66 34.1333C226.729 34.141 225.038 33.7954 223.588 33.0966C222.138 32.3903 221.009 31.4024 220.201 30.1328C219.393 28.8633 218.986 27.3801 218.979 25.6831L218.919 10.5696L223.839 10.55L223.898 25.2431C223.901 26.1294 224.097 26.9165 224.487 27.6044C224.883 28.2922 225.438 28.8317 226.152 29.2228C226.866 29.6139 227.696 29.8075 228.643 29.8037C229.598 29.7999 230.426 29.5997 231.129 29.2029C231.84 28.8062 232.387 28.2623 232.771 27.5714C233.162 26.8804 233.356 26.0918 233.352 25.2054L233.294 10.5123ZM269.134 10.3696L269.227 33.6421L264.977 33.659L254.794 19.0518L254.623 19.0524L254.682 33.7001L249.761 33.7197L249.668 10.4471L253.987 10.4299L264.09 25.0261L264.295 25.0253L264.236 10.3891L269.134 10.3696ZM288.661 17.8146C288.5 17.2622 288.274 16.7744 287.985 16.3513C287.695 15.9207 287.342 15.5584 286.924 15.2646C286.513 14.9632 286.043 14.7341 285.512 14.5771C284.988 14.4201 284.409 14.3428 283.772 14.3454C282.583 14.3501 281.539 14.6497 280.639 15.2442C279.748 15.8387 279.054 16.7013 278.559 17.8321C278.063 18.9553 277.819 20.3275 277.825 21.9487C277.832 23.5699 278.083 24.9477 278.58 26.0821C279.077 27.2165 279.778 28.0811 280.682 28.676C281.585 29.2633 282.651 29.5545 283.878 29.5496C284.992 29.5452 285.942 29.3444 286.728 28.9474C287.522 28.5427 288.126 27.9759 288.54 27.2469C288.961 26.518 289.17 25.6573 289.166 24.6649L290.166 24.8086L284.166 24.8325L284.152 21.128L293.89 21.0892L293.902 24.021C293.91 26.0664 293.485 27.8257 292.627 29.2989C291.77 30.7644 290.585 31.8979 289.073 32.6994C287.561 33.4933 285.827 33.8942 283.873 33.9019C281.691 33.9106 279.773 33.4372 278.117 32.4817C276.462 31.5186 275.168 30.1487 274.237 28.3721C273.313 26.5879 272.847 24.4685 272.837 22.014C272.829 20.1277 273.095 18.4448 273.635 16.9653C274.182 15.4783 274.95 14.2176 275.938 13.1834C276.926 12.1491 278.079 11.3605 279.395 10.8173C280.711 10.2742 282.138 9.99958 283.675 9.99345C284.994 9.9882 286.222 10.1765 287.359 10.5583C288.497 10.9326 289.507 11.4664 290.389 12.1599C291.278 12.8533 292.005 13.68 292.569 14.6399C293.133 15.5922 293.497 16.6438 293.661 17.7946L288.661 17.8146ZM300.928 33.5158L295.656 33.5368L303.597 10.2323L309.938 10.207L318.053 33.4476L312.78 33.4686L306.879 15.5374L306.698 15.5382L300.928 33.5158ZM300.562 24.3695L313.017 24.3199L313.032 28.1607L300.578 28.2104L300.562 24.3695ZM305.077 7.97637L301.59 2.81976L306.056 2.80197L308.497 7.96274L305.077 7.97637ZM340.227 10.0864L340.32 33.3589L336.07 33.3758L325.887 18.7686L325.716 18.7692L325.775 33.4168L320.854 33.4364L320.762 10.1639L325.08 10.1467L335.183 24.7429L335.388 24.7421L335.33 10.1059L340.227 10.0864ZM344.385 33.3427L344.293 10.0702L349.213 10.0506L349.251 19.6528L359.24 19.613L359.202 10.0108L364.111 9.99122L364.203 33.2638L359.294 33.2833L359.256 23.6698L349.267 23.7095L349.306 33.3231L344.385 33.3427ZM379.778 9.9288L385.474 27.5881L385.689 27.5872L391.255 9.88308L396.71 9.86136L388.78 33.1659L382.439 33.1911L374.312 9.95058L379.778 9.9288ZM400.521 33.1191L395.249 33.1401L403.19 9.83554L409.531 9.81028L417.646 33.0509L412.373 33.0719L406.472 15.1407L406.291 15.1414L400.521 33.1191ZM400.155 23.9727L412.61 23.9231L412.625 27.764L400.171 27.8136L400.155 23.9727ZM408.586 3.72309L411.961 3.70964C411.959 5.08845 411.452 6.20033 410.44 7.04527C409.436 7.89019 408.074 8.31607 406.354 8.32292C404.627 8.3298 403.258 7.9148 402.247 7.07791C401.236 6.24102 400.728 5.13319 400.722 3.75441L404.075 3.74106C404.069 4.26381 404.238 4.73284 404.58 5.14815C404.93 5.56342 405.518 5.76942 406.344 5.76613C407.147 5.76293 407.722 5.55609 408.069 5.14561C408.416 4.73514 408.588 4.26096 408.586 3.72309ZM439.82 9.68962L439.913 32.9622L435.663 32.9791L425.48 18.3718L425.309 18.3725L425.368 33.0201L420.447 33.0397L420.355 9.76716L424.673 9.74996L434.776 24.3462L434.981 24.3454L434.923 9.70913L439.82 9.68962ZM451.385 32.9165L451.292 9.64392L456.212 9.62432L456.25 19.2265L466.239 19.1867L466.201 9.58453L471.11 9.56498L471.203 32.8375L466.293 32.8571L466.255 23.2435L456.267 23.2833L456.305 32.8969L451.385 32.9165ZM496.599 21.0999C496.609 23.6378 496.137 25.7987 495.182 27.5829C494.234 29.367 492.937 30.732 491.289 31.6779C489.649 32.6163 487.802 33.0896 485.749 33.0978C483.681 33.106 481.823 32.6437 480.175 31.7109C478.528 30.778 477.223 29.4234 476.261 27.6469C475.3 25.8704 474.814 23.717 474.804 21.1867C474.794 18.6489 475.262 16.4879 476.21 14.7038C477.157 12.9197 478.451 11.5585 480.091 10.6201C481.732 9.67418 483.586 9.19709 485.654 9.18885C487.707 9.18068 489.557 9.64301 491.205 10.5758C492.86 11.5011 494.169 12.8519 495.13 14.6284C496.099 16.4049 496.589 18.562 496.599 21.0999ZM491.611 21.1198C491.604 19.4758 491.352 18.0905 490.855 16.9637C490.366 15.8368 489.677 14.9835 488.788 14.4037C487.9 13.8239 486.861 13.5364 485.671 13.5411C484.482 13.5458 483.445 13.8416 482.561 14.4285C481.677 15.0153 480.991 15.8741 480.503 17.0049C480.023 18.1356 479.786 19.5229 479.792 21.1668C479.799 22.8108 480.047 24.1962 480.536 25.323C481.033 26.4498 481.726 27.3031 482.615 27.8829C483.503 28.4627 484.542 28.7503 485.732 28.7455C486.921 28.7408 487.958 28.445 488.842 27.8581C489.726 27.2713 490.408 26.4125 490.889 25.2818C491.376 24.151 491.617 22.7637 491.611 21.1198ZM483.908 7.26398L486.296 2.08397L490.773 2.06613L487.328 7.25035L483.908 7.26398ZM502.989 32.7109L497.717 32.7319L505.658 9.42735L511.999 9.40209L520.114 32.6427L514.841 32.6637L508.94 14.7325L508.759 14.7332L502.989 32.7109ZM502.623 23.5646L515.078 23.5149L515.093 27.3558L502.639 27.4054L502.623 23.5646ZM1.04928 54.4947L1.03312 50.4379L20.1466 50.3617L20.1628 54.4185L13.0378 54.4469L13.1144 73.6627L8.25077 73.682L8.17422 54.4663L1.04928 54.4947ZM23.387 73.6217L23.2943 50.3492L28.2147 50.3296L28.253 59.9318L38.2415 59.892L38.2033 50.2898L43.1123 50.2703L43.205 73.5428L38.296 73.5624L38.2577 63.9488L28.2691 63.9886L28.3074 73.6021L23.387 73.6217ZM47.2618 73.5266L47.1691 50.2541L62.8508 50.1916L62.867 54.2484L52.1057 54.2913L52.1278 59.8367L62.0822 59.797L62.0984 63.8538L52.1439 63.8935L52.1661 69.4502L62.9728 69.4072L62.989 73.464L47.2618 73.5266ZM56.3751 44.8992L60.8664 48.4154L57.5369 48.4287L55.0063 46.4501L52.4574 48.4489L49.1279 48.4622L53.5911 44.9103L56.3751 44.8992ZM61.8926 46.4227L59.3813 46.4327L59.1586 44.729C59.81 44.6961 60.2831 44.6109 60.578 44.4734C60.8729 44.3358 61.0198 44.1345 61.0188 43.8693C61.0174 43.5208 60.8309 43.2867 60.4592 43.167C60.0875 43.0473 59.6251 42.9885 59.0721 42.9907L59.1784 41.1607C60.7163 41.1546 61.8914 41.3772 62.7039 41.8285C63.5162 42.2722 63.9241 42.9032 63.9273 43.7214C63.9296 44.2896 63.7154 44.726 63.2848 45.0308C62.8617 45.3279 62.3966 45.5192 61.8893 45.6045L61.8926 46.4227ZM73.2987 54.2069L73.2825 50.1501L92.396 50.0739L92.4122 54.1307L85.2872 54.1591L85.3638 73.3749L80.5002 73.3942L80.4236 54.1785L73.2987 54.2069ZM95.6364 73.3339L95.5437 50.0614L100.464 50.0418L100.502 59.644L110.491 59.6042L110.453 50.002L115.362 49.9824L115.454 73.255L110.545 73.2745L110.507 63.661L100.519 63.7008L100.557 73.3143L95.6364 73.3339ZM123.523 73.2228L118.25 73.2438L126.191 49.9393L132.532 49.914L140.647 73.1546L135.375 73.1756L129.474 55.2444L129.292 55.2452L123.523 73.2228ZM123.157 64.0765L135.611 64.0269L135.626 67.8678L123.172 67.9174L123.157 64.0765ZM163.695 61.4264C163.705 63.9642 163.232 66.1252 162.277 67.9093C161.33 69.6934 160.032 71.0584 158.384 72.0044C156.744 72.9428 154.898 73.416 152.845 73.4242C150.776 73.4325 148.919 72.9702 147.271 72.0373C145.623 71.1045 144.319 69.7498 143.357 67.9733C142.395 66.1969 141.909 64.0435 141.899 61.5132C141.889 58.9753 142.358 56.8143 143.305 55.0303C144.253 53.2462 145.547 51.8849 147.187 50.9466C148.827 50.0006 150.681 49.5236 152.749 49.5153C154.802 49.5071 156.653 49.9695 158.3 50.9023C159.956 51.8275 161.264 53.1784 162.226 54.9549C163.195 56.7313 163.685 58.8885 163.695 61.4264ZM158.706 61.4462C158.7 59.8023 158.448 58.4169 157.951 57.2901C157.462 56.1633 156.773 55.3099 155.884 54.7301C154.995 54.1504 153.956 53.8628 152.767 53.8676C151.577 53.8723 150.541 54.1681 149.657 54.755C148.773 55.3418 148.087 56.2006 147.599 57.3314C147.118 58.4621 146.881 59.8494 146.888 61.4933C146.895 63.1372 147.142 64.5226 147.632 65.6495C148.129 66.7763 148.822 67.6296 149.71 68.2094C150.599 68.7892 151.638 69.0767 152.827 69.072C154.017 69.0672 155.053 68.7714 155.937 68.1846C156.821 67.5977 157.504 66.7389 157.984 65.6082C158.472 64.4775 158.713 63.0902 158.706 61.4462ZM178.904 49.7293L184.599 67.3886L184.815 67.3877L190.381 49.6836L195.836 49.6619L187.906 72.9664L181.565 72.9916L173.438 49.7511L178.904 49.7293ZM199.647 72.9196L194.374 72.9406L202.316 49.6361L208.656 49.6108L216.772 72.8514L211.499 72.8724L205.598 54.9412L205.416 54.9419L199.647 72.9196ZM199.281 63.7733L211.735 63.7236L211.751 67.5645L199.296 67.6141L199.281 63.7733ZM203.795 47.3801L200.309 42.2235L204.775 42.2057L207.216 47.3665L203.795 47.3801ZM235.229 72.7779L226.979 72.8107L226.886 49.5382L235.205 49.505C237.545 49.4957 239.562 49.9536 241.256 50.8787C242.949 51.7962 244.253 53.1205 245.169 54.8517C246.093 56.5829 246.559 58.6568 246.569 61.0735C246.579 63.4977 246.129 65.5829 245.219 67.3289C244.317 69.075 243.015 70.4173 241.314 71.3559C239.621 72.2944 237.593 72.7684 235.229 72.7779ZM231.883 68.5752L235.008 68.5628C236.462 68.557 237.685 68.2945 238.675 67.7754C239.673 67.2487 240.42 66.4389 240.915 65.346C241.419 64.2456 241.667 62.8279 241.66 61.0931C241.653 59.3734 241.394 57.9691 240.882 56.8802C240.377 55.7913 239.628 54.9912 238.633 54.4801C237.639 53.9689 236.415 53.7162 234.96 53.722L231.824 53.7344L231.883 68.5752ZM264.542 49.3882L269.463 49.3686L269.523 64.4821C269.53 66.179 269.13 67.6655 268.325 68.9414C267.527 70.2174 266.406 71.2143 264.962 71.9321C263.518 72.6424 261.833 73.0014 259.909 73.0091C257.977 73.0168 256.287 72.6712 254.837 71.9725C253.387 71.2661 252.258 70.2782 251.45 69.0087C250.642 67.7391 250.234 66.2559 250.228 64.5589L250.168 49.4454L255.088 49.4258L255.146 64.1189C255.15 65.0053 255.346 65.7924 255.735 66.4802C256.132 67.168 256.687 67.7075 257.401 68.0986C258.115 68.4897 258.945 68.6833 259.892 68.6796C260.846 68.6758 261.675 68.4755 262.378 68.0788C263.089 67.682 263.636 67.1381 264.019 66.4472C264.411 65.7562 264.604 64.9676 264.601 64.0812L264.542 49.3882ZM281.01 72.5955L280.917 49.3229L285.838 49.3033L285.914 68.5191L295.891 68.4793L295.908 72.5361L281.01 72.5955ZM303.994 49.231L304.086 72.5036L299.166 72.5232L299.073 49.2506L303.994 49.231ZM301.647 79.0474C300.927 79.0503 300.309 78.8141 299.792 78.3389C299.274 77.8637 299.015 77.2889 299.012 76.6147C299.009 75.9405 299.265 75.3637 299.778 74.8844C300.291 74.4051 300.907 74.164 301.627 74.1611C302.347 74.1582 302.961 74.3944 303.471 74.8697C303.988 75.3449 304.248 75.9196 304.251 76.5938C304.253 77.2681 303.998 77.8449 303.485 78.3242C302.979 78.8035 302.366 79.0445 301.647 79.0474ZM328.608 57.2807L323.631 57.3006C323.538 56.657 323.35 56.0858 323.068 55.5869C322.785 55.0804 322.424 54.6501 321.983 54.2958C321.542 53.9414 321.033 53.6707 320.457 53.4836C319.888 53.2965 319.27 53.2043 318.603 53.2069C317.399 53.2117 316.351 53.5152 315.459 54.1172C314.568 54.7117 313.878 55.578 313.39 56.7164C312.902 57.8471 312.661 59.2193 312.668 60.8329C312.675 62.492 312.926 63.8849 313.423 65.0118C313.928 66.1385 314.628 66.988 315.524 67.5602C316.421 68.1324 317.456 68.4162 318.63 68.4115C319.289 68.4089 319.899 68.3193 320.458 68.1428C321.026 67.9663 321.529 67.7105 321.967 67.3755C322.405 67.0328 322.767 66.6185 323.053 66.1325C323.346 65.6465 323.549 65.0926 323.66 64.471L328.637 64.4739C328.513 65.5426 328.195 66.5741 327.683 67.5686C327.18 68.5555 326.498 69.4408 325.637 70.2245C324.784 71.0006 323.764 71.6183 322.576 72.0776C321.396 72.5293 320.06 72.7581 318.568 72.764C316.492 72.7723 314.634 72.31 312.994 71.3772C311.361 70.4443 310.068 69.0895 309.114 67.313C308.168 65.5365 307.689 63.3831 307.679 60.8528C307.669 58.3149 308.138 56.1539 309.085 54.3699C310.033 52.5858 311.323 51.2246 312.955 50.2862C314.588 49.3403 316.427 48.8633 318.473 48.8551C319.821 48.8498 321.072 49.0342 322.225 49.4084C323.385 49.7826 324.414 50.3315 325.311 51.0552C326.208 51.7713 326.938 52.651 327.503 53.6942C328.076 54.7374 328.444 55.9329 328.608 57.2807ZM332.197 72.3916L332.104 49.119L337.025 49.0994L337.063 58.7016L347.052 58.6618L347.013 49.0596L351.922 49.0401L352.015 72.3126L347.106 72.3322L347.068 62.7186L337.079 62.7584L337.117 72.372L332.197 72.3916Z" fill="#2D4C8F"/>
</svg>
